<svg width="26" height="21" viewBox="0 0 26 21" fill="none" xmlns="http://www.w3.org/2000/svg">
<path d="M25.0368 16.0067C24.1878 12.8217 22.8414 9.77192 21.0405 6.95637C20.1739 5.60207 19.6274 4.48321 17.9045 4.48321C16.3888 4.48321 15.1602 5.63576 15.1602 7.05744V9.41229L13.8721 8.55356C13.7863 8.49632 13.7159 8.41878 13.6673 8.32782C13.6186 8.23686 13.5932 8.13529 13.5932 8.03213V1.34916C13.5932 1.00285 13.3127 0.722351 12.9664 0.722351H12.3396C11.9932 0.722351 11.7127 1.00285 11.7127 1.34916V8.03213C11.7127 8.24172 11.6081 8.43721 11.4338 8.55356L10.1457 9.41229V7.05744C10.1457 5.63576 8.91717 4.48321 7.40147 4.48321C5.67852 4.48321 5.13202 5.60207 4.26546 6.95637C2.46456 9.77192 1.11809 12.8217 0.269153 16.0067C0.167689 16.3863 0.11676 16.7761 0.11676 17.1675C0.11676 19.5662 2.56445 21.2982 5.02312 20.6392L7.35407 20.0144C9.00649 19.5717 10.1457 18.1547 10.1457 16.5426V13.1152L6.78289 15.3572C6.74866 15.38 6.71026 15.3959 6.66989 15.4039C6.62953 15.4119 6.58798 15.4118 6.54763 15.4038C6.50728 15.3957 6.46891 15.3797 6.43473 15.3568C6.40055 15.3339 6.37123 15.3045 6.34843 15.2702L6.00055 14.7488C5.9777 14.7146 5.96183 14.6762 5.95384 14.6358C5.94585 14.5954 5.94589 14.5539 5.95397 14.5135C5.96205 14.4732 5.978 14.4348 6.00091 14.4006C6.02383 14.3665 6.05326 14.3371 6.08752 14.3143L12.653 9.93763L19.2184 14.3143C19.2527 14.3371 19.2821 14.3665 19.305 14.4007C19.3279 14.4348 19.3438 14.4732 19.3519 14.5135C19.36 14.5539 19.36 14.5954 19.3521 14.6358C19.3441 14.6762 19.3282 14.7146 19.3054 14.7488L18.9575 15.2702C18.9347 15.3045 18.9054 15.3339 18.8712 15.3568C18.837 15.3797 18.7986 15.3957 18.7583 15.4037C18.7179 15.4118 18.6764 15.4119 18.636 15.4039C18.5957 15.3959 18.5573 15.38 18.523 15.3572L15.1602 13.1152V16.5426C15.1602 18.1547 16.2994 19.5713 17.9519 20.0144L20.2828 20.6392C22.7415 21.2982 25.1892 19.5662 25.1892 17.1675C25.1892 16.7761 25.1382 16.3863 25.0368 16.0067Z" fill="#D0D8DA"/>
</svg>
