<svg width="21" height="19" viewBox="0 0 21 19" fill="none" xmlns="http://www.w3.org/2000/svg">
<path d="M10.2492 7.49448C10.2492 9.64115 9.80918 11.3611 8.92918 12.6545C8.06251 13.9478 6.81585 14.5945 5.18918 14.5945C3.54918 14.5945 2.29585 13.9611 1.42918 12.6945C0.562512 11.4278 0.129179 9.70115 0.129179 7.51448C0.129179 6.11448 0.322512 4.87448 0.709179 3.79448C1.09585 2.71448 1.66918 1.87448 2.42918 1.27448C3.18918 0.67448 4.10918 0.37448 5.18918 0.37448C6.81585 0.37448 8.06251 1.02115 8.92918 2.31448C9.80918 3.59448 10.2492 5.32115 10.2492 7.49448ZM8.44918 7.49448C8.44918 5.61448 8.18918 4.20115 7.66918 3.25448C7.14918 2.30781 6.32251 1.83448 5.18918 1.83448C4.05585 1.83448 3.22918 2.31448 2.70918 3.27448C2.18918 4.22115 1.92918 5.63448 1.92918 7.51448C1.92918 9.38115 2.18918 10.7878 2.70918 11.7345C3.24251 12.6678 4.06918 13.1345 5.18918 13.1345C6.32251 13.1345 7.14918 12.6678 7.66918 11.7345C8.18918 10.7878 8.44918 9.37448 8.44918 7.49448ZM19.8814 13.8145C19.8814 14.2411 19.7747 14.6145 19.5614 14.9345C19.348 15.2545 19.0014 15.5678 18.5214 15.8745C18.0547 16.1945 17.3814 16.5745 16.5014 17.0145H20.0814L19.9014 18.2345H14.3614V17.1745C15.6147 16.4145 16.4814 15.8745 16.9614 15.5545C17.4547 15.2345 17.808 14.9478 18.0214 14.6945C18.248 14.4411 18.3614 14.1678 18.3614 13.8745C18.3614 13.5678 18.2547 13.3345 18.0414 13.1745C17.8414 13.0011 17.5547 12.9145 17.1814 12.9145C16.448 12.9145 15.8147 13.2345 15.2814 13.8745L14.2614 13.0945C14.6614 12.6411 15.1147 12.2945 15.6214 12.0545C16.128 11.8145 16.6614 11.6945 17.2214 11.6945C18.048 11.6945 18.6947 11.8878 19.1614 12.2745C19.6414 12.6611 19.8814 13.1745 19.8814 13.8145Z" fill="#D0D8DA"/>
</svg>
