<svg width="17" height="27" viewBox="0 0 17 27" fill="none" xmlns="http://www.w3.org/2000/svg">
<path d="M9.94888 17.4134V11.8729C9.94888 11.5655 9.81053 11.2707 9.56426 11.0533C9.31798 10.8359 8.98397 10.7138 8.63569 10.7138C8.28741 10.7138 7.95339 10.8359 7.70712 11.0533C7.46085 11.2707 7.32249 11.5655 7.32249 11.8729V17.4134C6.92555 17.6156 6.59548 17.9061 6.36511 18.2558C6.13473 18.6056 6.01207 19.0024 6.0093 19.407C6.0093 20.0218 6.28601 20.6114 6.77855 21.0462C7.27109 21.4809 7.93913 21.7252 8.63569 21.7252C9.33225 21.7252 10.0003 21.4809 10.4928 21.0462C10.9854 20.6114 11.2621 20.0218 11.2621 19.407C11.2593 19.0024 11.1366 18.6056 10.9063 18.2558C10.6759 17.9061 10.3458 17.6156 9.94888 17.4134ZM14.5451 14.7706V6.07745C14.5451 4.6941 13.9225 3.36742 12.8142 2.38925C11.706 1.41107 10.203 0.861542 8.63569 0.861542C7.06842 0.861542 5.56535 1.41107 4.45713 2.38925C3.34891 3.36742 2.72631 4.6941 2.72631 6.07745V14.7706C1.81869 15.6784 1.1953 16.7796 0.917798 17.9653C0.6403 19.1511 0.718312 20.3802 1.14412 21.5311C1.56992 22.682 2.32877 23.7149 3.34559 24.5275C4.36241 25.3402 5.60197 25.9044 6.94167 26.1645C7.49818 26.2764 8.06531 26.3424 8.63569 26.3615C10.1598 26.3678 11.6533 25.9837 12.9351 25.2559C14.2169 24.5281 15.2321 23.4878 15.8575 22.261C16.483 21.0342 16.6919 19.6736 16.4589 18.3441C16.226 17.0146 15.5612 15.7733 14.5451 14.7706ZM11.9187 22.9654C10.8738 23.7831 9.50376 24.201 8.10986 24.1271C6.71596 24.0532 5.41242 23.4935 4.48599 22.5713C3.55957 21.6491 3.08615 20.4398 3.16988 19.2095C3.25361 17.9791 3.88764 16.8286 4.93248 16.0109C5.05656 15.9035 5.15527 15.7755 5.2229 15.6342C5.29052 15.493 5.32572 15.3413 5.32644 15.1879V6.07745C5.32644 5.30892 5.67232 4.57188 6.288 4.02845C6.90368 3.48502 7.73872 3.17972 8.60942 3.17972C9.48012 3.17972 10.3152 3.48502 10.9308 4.02845C11.5465 4.57188 11.8924 5.30892 11.8924 6.07745V15.2806C11.8931 15.434 11.9283 15.5857 11.9959 15.727C12.0636 15.8682 12.1623 15.9962 12.2864 16.1036C12.8231 16.5613 13.2432 17.1147 13.5187 17.7269C13.7942 18.3392 13.9186 18.9962 13.8838 19.6542C13.849 20.3123 13.6558 20.9562 13.3169 21.5431C12.9781 22.1301 12.5014 22.6465 11.9187 23.0581V22.9654Z" fill="#D0D8DA"/>
</svg>
